<svg width="30" height="24" viewBox="0 0 30 24" fill="none" xmlns="http://www.w3.org/2000/svg">
    <g id="Group 672">
        <path id="Vector 14"
            d="M26 4.5H22L21.5 12V14.5L21 16L19.5 17L18 17.5H10L10.5 18.5L11.5 20L13 20.5L23.5 20L24 20.5L26.5 23.5L27 20.5V20L28.5 19L29 17V7.5L28.5 6L27 5L26 4.5Z"
            fill="#FFBE9D" />
        <path id="Vector 13"
            d="M18.5 0.5H3.5L1.5 1.5L0.5 2.5V4V14V14.5L1 16L2.5 17L4 17.5L5 22L8 17.5H18L19.5 17L21 16L21.5 14.5V4.5V3L20.5 1.5L19.5 1L18.5 0.5Z"
            fill="#FFBE9D" />
        <g id="Group 659">
            <path id="Vector"
                d="M25.5948 4.13356H22.0596C22.0318 3.02871 21.5737 1.97838 20.7829 1.20629C19.9921 0.434206 18.9311 0.00137843 17.8259 0H4.23705C3.11335 0.00122998 2.03605 0.4483 1.24166 1.24307C0.447267 2.03783 0.000702301 3.11534 0 4.23904V13.5371C0.00122124 14.6131 0.411339 15.6484 1.14729 16.4334C1.88325 17.2184 2.89003 17.6943 3.96373 17.7648L4.66095 22.3495C4.67018 22.4141 4.69916 22.4743 4.74394 22.5218C4.78871 22.5693 4.84708 22.6018 4.91105 22.6148C4.93161 22.6188 4.95248 22.6208 4.97341 22.6208C5.02766 22.6208 5.08099 22.6068 5.12827 22.5802C5.17555 22.5536 5.2152 22.5152 5.24341 22.4689L8.10061 17.7721H9.77367C9.95585 18.5707 10.403 19.284 11.0422 19.7961C11.6815 20.3081 12.4752 20.5887 13.2943 20.5922H23.4912L26.4585 23.8952C26.4882 23.9281 26.5244 23.9544 26.5648 23.9725C26.6053 23.9905 26.6491 23.9999 26.6933 24C26.7307 23.9999 26.7677 23.9934 26.8028 23.9808C26.8622 23.9588 26.9136 23.9196 26.9505 23.8682C26.9874 23.8167 27.008 23.7555 27.0098 23.6922L27.1 20.2645C27.7302 19.9792 28.2643 19.5175 28.6378 18.9353C29.0114 18.3531 29.2083 17.6751 29.2049 16.9834V7.74238C29.2039 6.78536 28.8231 5.86785 28.1463 5.19126C27.4695 4.51466 26.5518 4.13426 25.5948 4.13356ZM7.91951 17.1412C7.86516 17.1412 7.81172 17.1552 7.76432 17.1818C7.71692 17.2084 7.67716 17.2468 7.64885 17.2932L5.15518 21.3916L4.54951 17.4112C4.5381 17.3365 4.50032 17.2684 4.44301 17.2191C4.38569 17.1698 4.31264 17.1427 4.23705 17.1426C3.28142 17.1415 2.36523 16.7615 1.68944 16.0858C1.01365 15.4101 0.633436 14.494 0.632207 13.5384V4.23904C0.632909 3.28301 1.01287 2.36631 1.6887 1.6901C2.36453 1.0139 3.28102 0.633437 4.23705 0.632207H17.8259C18.7818 0.633437 19.6983 1.01392 20.374 1.69014C21.0497 2.36637 21.4295 3.28307 21.43 4.23904V13.5371C21.429 14.4926 21.0489 15.4088 20.3732 16.0844C19.6975 16.7601 18.7814 17.1402 17.8259 17.1412H7.91951ZM28.5714 16.9847C28.5747 17.5854 28.3951 18.1729 28.0564 18.6691C27.7178 19.1652 27.2361 19.5465 26.6754 19.7623C26.6178 19.785 26.5681 19.8243 26.5327 19.8752C26.4973 19.926 26.4777 19.9862 26.4764 20.0482L26.4015 22.8862L23.8706 20.0681C23.8408 20.0352 23.8045 20.0089 23.7639 19.9909C23.7234 19.9728 23.6795 19.9634 23.6351 19.9633H13.291C12.6394 19.9603 12.0067 19.7447 11.4889 19.3492C10.9712 18.9537 10.5967 18.3999 10.4225 17.7721H17.8259C18.949 17.7707 20.0257 17.3239 20.8199 16.5298C21.6141 15.7356 22.0608 14.6589 22.0622 13.5357V4.76975H25.5948C26.3839 4.77045 27.1405 5.08419 27.6986 5.64212C28.2566 6.20005 28.5705 6.95658 28.5714 7.7457V16.9847Z"
                fill="#231F20" />
        </g>
    </g>
</svg>