<svg width="20" height="20" viewBox="0 0 20 20" fill="none" xmlns="http://www.w3.org/2000/svg">
<path d="M0 1.42143C0 0.635714 0.446 0 0.995 0H9.005C9.26889 1.12351e-08 9.52197 0.149757 9.70857 0.416327C9.89517 0.682896 10 1.04444 10 1.42143C10 1.79841 9.89517 2.15996 9.70857 2.42653C9.52197 2.6931 9.26889 2.84286 9.005 2.84286H0.995C0.731109 2.84286 0.478028 2.6931 0.291429 2.42653C0.10483 2.15996 0 1.79841 0 1.42143ZM0 10C0 9.21429 0.446 8.57857 0.995 8.57857H19.005C19.2689 8.57857 19.522 8.72833 19.7086 8.9949C19.8952 9.26147 20 9.62301 20 10C20 10.377 19.8952 10.7385 19.7086 11.0051C19.522 11.2717 19.2689 11.4214 19.005 11.4214H0.995C0.731109 11.4214 0.478028 11.2717 0.291429 11.0051C0.10483 10.7385 0 10.377 0 10ZM0.995 17.1571C0.731109 17.1571 0.478028 17.3069 0.291429 17.5735C0.10483 17.84 0 18.2016 0 18.5786C0 18.9556 0.10483 19.3171 0.291429 19.5837C0.478028 19.8502 0.731109 20 0.995 20H13.005C13.2689 20 13.522 19.8502 13.7086 19.5837C13.8952 19.3171 14 18.9556 14 18.5786C14 18.2016 13.8952 17.84 13.7086 17.5735C13.522 17.3069 13.2689 17.1571 13.005 17.1571H0.995Z" fill="black"/>
</svg>
