<svg width="159" height="47" viewBox="0 0 159 47" fill="none" xmlns="http://www.w3.org/2000/svg">
<path d="M96.0032 37.1871H99.5542V37.9871H96.8806V40.1858H99.3735V40.9806H96.8806V44H96.0032V37.1871ZM101 41.8994C101 42.3432 101.095 42.6976 101.284 42.9626C101.477 43.2241 101.771 43.3548 102.167 43.3548C102.566 43.3548 102.86 43.2241 103.049 42.9626C103.238 42.6976 103.333 42.3432 103.333 41.8994V39.7626H104.221V42.0232C104.221 42.4361 104.14 42.8009 103.978 43.1174C103.82 43.434 103.588 43.6817 103.281 43.8606C102.979 44.0361 102.607 44.1239 102.167 44.1239C101.73 44.1239 101.358 44.0361 101.052 43.8606C100.749 43.6817 100.517 43.434 100.355 43.1174C100.197 42.8009 100.118 42.4361 100.118 42.0232V39.7626H101V41.8994ZM105.488 42.0645C105.491 42.3191 105.546 42.5514 105.653 42.7613C105.759 42.9712 105.918 43.1381 106.128 43.2619C106.341 43.3858 106.602 43.4477 106.912 43.4477C107.174 43.4477 107.396 43.4099 107.578 43.3342C107.764 43.2551 107.915 43.1622 108.032 43.0555C108.149 42.9454 108.233 42.8473 108.285 42.7613L108.724 43.3032C108.61 43.4684 108.471 43.6129 108.306 43.7368C108.144 43.8606 107.946 43.9553 107.712 44.0206C107.478 44.0895 107.193 44.1239 106.855 44.1239C106.401 44.1239 106.007 44.0275 105.673 43.8348C105.343 43.6387 105.088 43.3686 104.91 43.0245C104.731 42.677 104.641 42.2796 104.641 41.8323C104.641 41.4194 104.725 41.0477 104.894 40.7174C105.063 40.3837 105.307 40.1204 105.627 39.9277C105.95 39.7351 106.339 39.6387 106.793 39.6387C107.21 39.6387 107.571 39.7265 107.877 39.9019C108.187 40.074 108.426 40.3183 108.595 40.6348C108.767 40.9514 108.853 41.3299 108.853 41.7703C108.853 41.7978 108.851 41.8477 108.848 41.92C108.844 41.9888 108.841 42.037 108.837 42.0645H105.488ZM107.996 41.3884C107.993 41.2473 107.951 41.0925 107.872 40.9239C107.796 40.7553 107.673 40.6108 107.5 40.4903C107.328 40.3699 107.096 40.3097 106.804 40.3097C106.501 40.3097 106.257 40.3682 106.071 40.4852C105.888 40.6022 105.754 40.7449 105.668 40.9135C105.582 41.0787 105.532 41.237 105.519 41.3884H107.996ZM110.262 44H109.359V36.8981H110.262V44ZM111.138 44V39.7626H112.036V44H111.138ZM111.597 38.3123C111.436 38.3123 111.296 38.2555 111.179 38.1419C111.066 38.0249 111.009 37.8856 111.009 37.7239C111.009 37.5621 111.066 37.4228 111.179 37.3058C111.296 37.1888 111.436 37.1303 111.597 37.1303C111.704 37.1303 111.802 37.1578 111.892 37.2129C111.984 37.268 112.058 37.3402 112.113 37.4297C112.169 37.5157 112.196 37.6138 112.196 37.7239C112.196 37.8856 112.138 38.0249 112.021 38.1419C111.904 38.2555 111.762 38.3123 111.597 38.3123ZM115.262 39.6387C115.54 39.6387 115.811 39.6972 116.072 39.8142C116.337 39.9312 116.554 40.117 116.722 40.3716C116.894 40.6228 116.98 40.9514 116.98 41.3574V44H116.072V41.5329C116.072 41.1131 115.974 40.8086 115.778 40.6194C115.582 40.4267 115.329 40.3303 115.019 40.3303C114.816 40.3303 114.62 40.3888 114.431 40.5058C114.245 40.6194 114.092 40.7776 113.971 40.9806C113.851 41.1802 113.791 41.4073 113.791 41.6619V44H112.893V39.7626H113.791V40.5161C113.822 40.3991 113.906 40.2718 114.044 40.1342C114.181 39.9966 114.357 39.8796 114.57 39.7832C114.783 39.6869 115.014 39.6387 115.262 39.6387ZM119.662 46.2658C119.328 46.2658 119.025 46.2314 118.754 46.1626C118.485 46.0938 118.249 45.9957 118.046 45.8684C117.847 45.7445 117.687 45.5983 117.566 45.4297L118.155 44.8671C118.22 44.9566 118.308 45.0512 118.418 45.151C118.532 45.2542 118.685 45.3419 118.877 45.4142C119.07 45.4865 119.321 45.5226 119.631 45.5226C119.934 45.5226 120.19 45.4572 120.4 45.3265C120.61 45.1991 120.77 45.0254 120.88 44.8052C120.99 44.5849 121.045 44.3372 121.045 44.0619V43.9226H121.923V44.1187C121.923 44.5867 121.821 44.9789 121.618 45.2955C121.418 45.6155 121.148 45.8563 120.808 46.0181C120.467 46.1832 120.085 46.2658 119.662 46.2658ZM121.045 44V43.1742C121.018 43.2602 120.937 43.3789 120.803 43.5303C120.672 43.6817 120.491 43.8194 120.261 43.9432C120.034 44.0637 119.765 44.1239 119.455 44.1239C119.063 44.1239 118.707 44.031 118.387 43.8452C118.071 43.6594 117.818 43.3996 117.628 43.0658C117.443 42.7286 117.35 42.3346 117.35 41.8839C117.35 41.4331 117.443 41.0409 117.628 40.7071C117.818 40.3699 118.071 40.1084 118.387 39.9226C118.707 39.7333 119.063 39.6387 119.455 39.6387C119.762 39.6387 120.027 39.6938 120.25 39.8039C120.477 39.914 120.658 40.0413 120.792 40.1858C120.93 40.3303 121.011 40.4542 121.035 40.5574V39.7626H121.923V44H121.045ZM118.237 41.8839C118.237 42.1901 118.305 42.4551 118.439 42.6787C118.573 42.9024 118.747 43.0761 118.96 43.2C119.177 43.3204 119.407 43.3806 119.652 43.3806C119.913 43.3806 120.147 43.3187 120.354 43.1948C120.56 43.071 120.723 42.8972 120.844 42.6735C120.964 42.4465 121.025 42.1832 121.025 41.8839C121.025 41.5845 120.964 41.323 120.844 41.0994C120.723 40.8723 120.56 40.6968 120.354 40.5729C120.147 40.4456 119.913 40.3819 119.652 40.3819C119.407 40.3819 119.177 40.4439 118.96 40.5677C118.747 40.6916 118.573 40.8654 118.439 41.089C118.305 41.3127 118.237 41.5776 118.237 41.8839ZM125.61 46.1471H124.717V39.7626H125.625V40.5574C125.656 40.4508 125.742 40.3252 125.883 40.1806C126.024 40.0361 126.213 39.9105 126.451 39.8039C126.692 39.6938 126.967 39.6387 127.277 39.6387C127.669 39.6387 128.016 39.7333 128.319 39.9226C128.626 40.1084 128.865 40.3699 129.037 40.7071C129.212 41.0409 129.3 41.4331 129.3 41.8839C129.3 42.3346 129.21 42.7286 129.032 43.0658C128.853 43.3996 128.608 43.6594 128.299 43.8452C127.992 44.031 127.641 44.1239 127.246 44.1239C126.926 44.1239 126.645 44.0637 126.404 43.9432C126.167 43.8228 125.979 43.6869 125.842 43.5355C125.708 43.3841 125.63 43.2637 125.61 43.1742V46.1471ZM128.412 41.8839C128.412 41.5776 128.349 41.3127 128.221 41.089C128.097 40.8654 127.932 40.6916 127.726 40.5677C127.519 40.4439 127.296 40.3819 127.055 40.3819C126.79 40.3819 126.549 40.4456 126.332 40.5729C126.115 40.6968 125.943 40.8723 125.816 41.0994C125.689 41.323 125.625 41.5845 125.625 41.8839C125.625 42.1832 125.689 42.4465 125.816 42.6735C125.943 42.8972 126.115 43.071 126.332 43.1948C126.549 43.3187 126.79 43.3806 127.055 43.3806C127.296 43.3806 127.519 43.3204 127.726 43.2C127.932 43.0761 128.097 42.9024 128.221 42.6787C128.349 42.4551 128.412 42.1901 128.412 41.8839ZM133.126 44V43.1742C133.098 43.2602 133.017 43.3789 132.883 43.5303C132.752 43.6817 132.572 43.8194 132.341 43.9432C132.114 44.0637 131.846 44.1239 131.536 44.1239C131.144 44.1239 130.788 44.031 130.468 43.8452C130.151 43.6594 129.898 43.3996 129.709 43.0658C129.523 42.7286 129.43 42.3346 129.43 41.8839C129.43 41.4331 129.523 41.0409 129.709 40.7071C129.898 40.3699 130.151 40.1084 130.468 39.9226C130.788 39.7333 131.144 39.6387 131.536 39.6387C131.842 39.6387 132.107 39.6938 132.331 39.8039C132.558 39.914 132.739 40.0413 132.873 40.1858C133.011 40.3303 133.091 40.4542 133.115 40.5574V39.7626H134.003V44H133.126ZM130.318 41.8839C130.318 42.1901 130.385 42.4551 130.519 42.6787C130.654 42.9024 130.827 43.0761 131.041 43.2C131.257 43.3204 131.488 43.3806 131.732 43.3806C131.994 43.3806 132.228 43.3187 132.434 43.1948C132.641 43.071 132.804 42.8972 132.925 42.6735C133.045 42.4465 133.105 42.1832 133.105 41.8839C133.105 41.5845 133.045 41.323 132.925 41.0994C132.804 40.8723 132.641 40.6968 132.434 40.5729C132.228 40.4456 131.994 40.3819 131.732 40.3819C131.488 40.3819 131.257 40.4439 131.041 40.5677C130.827 40.6916 130.654 40.8654 130.519 41.089C130.385 41.3127 130.318 41.5776 130.318 41.8839ZM136.277 39.6387C136.497 39.6387 136.702 39.6611 136.891 39.7058C137.084 39.7505 137.249 39.8039 137.386 39.8658C137.528 39.9277 137.627 39.9828 137.686 40.031L137.33 40.5987C137.261 40.5368 137.137 40.468 136.958 40.3923C136.779 40.3131 136.58 40.2735 136.359 40.2735C136.118 40.2735 135.914 40.3217 135.745 40.4181C135.577 40.511 135.492 40.6469 135.492 40.8258C135.492 41.0047 135.578 41.1475 135.75 41.2542C135.926 41.3574 136.16 41.4434 136.452 41.5123C136.686 41.5673 136.905 41.6413 137.108 41.7342C137.314 41.8271 137.481 41.9561 137.608 42.1213C137.736 42.283 137.799 42.4998 137.799 42.7716C137.799 43.0194 137.748 43.231 137.645 43.4065C137.541 43.5785 137.402 43.7178 137.226 43.8245C137.051 43.9277 136.855 44.0034 136.638 44.0516C136.421 44.0998 136.201 44.1239 135.977 44.1239C135.716 44.1239 135.48 44.0963 135.27 44.0413C135.06 43.9897 134.883 43.9277 134.739 43.8555C134.598 43.7798 134.494 43.7144 134.429 43.6594L134.785 43.0194C134.875 43.1054 135.021 43.1966 135.224 43.2929C135.43 43.3892 135.664 43.4374 135.926 43.4374C136.215 43.4374 136.449 43.3772 136.628 43.2568C136.807 43.1329 136.896 42.9729 136.896 42.7768C136.896 42.6288 136.853 42.5101 136.767 42.4206C136.681 42.3312 136.566 42.2589 136.421 42.2039C136.277 42.1488 136.118 42.1006 135.946 42.0594C135.781 42.0215 135.62 41.9716 135.461 41.9097C135.306 41.8477 135.164 41.7686 135.033 41.6723C134.906 41.5725 134.804 41.452 134.728 41.311C134.653 41.1665 134.615 40.9978 134.615 40.8052C134.615 40.5609 134.692 40.3527 134.847 40.1806C135.002 40.0052 135.205 39.871 135.456 39.7781C135.707 39.6852 135.981 39.6387 136.277 39.6387ZM139.914 39.6387C140.134 39.6387 140.339 39.6611 140.528 39.7058C140.721 39.7505 140.886 39.8039 141.024 39.8658C141.165 39.9277 141.264 39.9828 141.323 40.031L140.967 40.5987C140.898 40.5368 140.774 40.468 140.595 40.3923C140.416 40.3131 140.217 40.2735 139.996 40.2735C139.756 40.2735 139.551 40.3217 139.382 40.4181C139.214 40.511 139.129 40.6469 139.129 40.8258C139.129 41.0047 139.215 41.1475 139.387 41.2542C139.563 41.3574 139.797 41.4434 140.089 41.5123C140.323 41.5673 140.542 41.6413 140.745 41.7342C140.951 41.8271 141.118 41.9561 141.245 42.1213C141.373 42.283 141.436 42.4998 141.436 42.7716C141.436 43.0194 141.385 43.231 141.282 43.4065C141.178 43.5785 141.039 43.7178 140.864 43.8245C140.688 43.9277 140.492 44.0034 140.275 44.0516C140.058 44.0998 139.838 44.1239 139.615 44.1239C139.353 44.1239 139.117 44.0963 138.907 44.0413C138.698 43.9897 138.52 43.9277 138.376 43.8555C138.235 43.7798 138.132 43.7144 138.066 43.6594L138.422 43.0194C138.512 43.1054 138.658 43.1966 138.861 43.2929C139.067 43.3892 139.301 43.4374 139.563 43.4374C139.852 43.4374 140.086 43.3772 140.265 43.2568C140.444 43.1329 140.533 42.9729 140.533 42.7768C140.533 42.6288 140.49 42.5101 140.404 42.4206C140.318 42.3312 140.203 42.2589 140.058 42.2039C139.914 42.1488 139.756 42.1006 139.584 42.0594C139.418 42.0215 139.257 41.9716 139.098 41.9097C138.944 41.8477 138.801 41.7686 138.67 41.6723C138.543 41.5725 138.441 41.452 138.365 41.311C138.29 41.1665 138.252 40.9978 138.252 40.8052C138.252 40.5609 138.329 40.3527 138.484 40.1806C138.639 40.0052 138.842 39.871 139.093 39.7781C139.344 39.6852 139.618 39.6387 139.914 39.6387ZM142.059 44V39.7626H142.957V44H142.059ZM142.519 38.3123C142.357 38.3123 142.218 38.2555 142.101 38.1419C141.987 38.0249 141.93 37.8856 141.93 37.7239C141.93 37.5621 141.987 37.4228 142.101 37.3058C142.218 37.1888 142.357 37.1303 142.519 37.1303C142.625 37.1303 142.723 37.1578 142.813 37.2129C142.906 37.268 142.98 37.3402 143.035 37.4297C143.09 37.5157 143.117 37.6138 143.117 37.7239C143.117 37.8856 143.059 38.0249 142.942 38.1419C142.825 38.2555 142.684 38.3123 142.519 38.3123ZM145.775 44.1239C145.338 44.1239 144.95 44.0258 144.609 43.8297C144.272 43.6335 144.007 43.3686 143.814 43.0348C143.621 42.6976 143.525 42.3174 143.525 41.8942C143.525 41.471 143.621 41.089 143.814 40.7484C144.007 40.4077 144.272 40.1376 144.609 39.9381C144.95 39.7385 145.338 39.6387 145.775 39.6387C146.209 39.6387 146.593 39.7385 146.926 39.9381C147.264 40.1376 147.527 40.4077 147.716 40.7484C147.905 41.089 148 41.471 148 41.8942C148 42.3174 147.905 42.6976 147.716 43.0348C147.527 43.3686 147.264 43.6335 146.926 43.8297C146.593 44.0258 146.209 44.1239 145.775 44.1239ZM145.775 43.3548C146.051 43.3548 146.29 43.2912 146.493 43.1639C146.699 43.0366 146.859 42.8628 146.973 42.6426C147.086 42.4189 147.143 42.1677 147.143 41.889C147.143 41.6103 147.086 41.3591 146.973 41.1355C146.859 40.9118 146.699 40.7346 146.493 40.6039C146.29 40.4731 146.051 40.4077 145.775 40.4077C145.497 40.4077 145.254 40.4731 145.048 40.6039C144.841 40.7346 144.679 40.9118 144.563 41.1355C144.449 41.3591 144.392 41.6103 144.392 41.889C144.392 42.1677 144.449 42.4189 144.563 42.6426C144.679 42.8628 144.841 43.0366 145.048 43.1639C145.254 43.2912 145.497 43.3548 145.775 43.3548ZM150.848 39.6387C151.127 39.6387 151.397 39.6972 151.659 39.8142C151.924 39.9312 152.141 40.117 152.309 40.3716C152.481 40.6228 152.567 40.9514 152.567 41.3574V44H151.659V41.5329C151.659 41.1131 151.561 40.8086 151.365 40.6194C151.168 40.4267 150.916 40.3303 150.606 40.3303C150.403 40.3303 150.207 40.3888 150.018 40.5058C149.832 40.6194 149.679 40.7776 149.558 40.9806C149.438 41.1802 149.378 41.4073 149.378 41.6619V44H148.479V39.7626H149.378V40.5161C149.408 40.3991 149.493 40.2718 149.63 40.1342C149.768 39.9966 149.944 39.8796 150.157 39.7832C150.37 39.6869 150.601 39.6387 150.848 39.6387ZM154.815 39.6387C155.035 39.6387 155.24 39.6611 155.429 39.7058C155.622 39.7505 155.787 39.8039 155.925 39.8658C156.066 39.9277 156.166 39.9828 156.224 40.031L155.868 40.5987C155.799 40.5368 155.675 40.468 155.496 40.3923C155.317 40.3131 155.118 40.2735 154.898 40.2735C154.657 40.2735 154.452 40.3217 154.283 40.4181C154.115 40.511 154.031 40.6469 154.031 40.8258C154.031 41.0047 154.117 41.1475 154.289 41.2542C154.464 41.3574 154.698 41.4434 154.991 41.5123C155.225 41.5673 155.443 41.6413 155.646 41.7342C155.853 41.8271 156.019 41.9561 156.147 42.1213C156.274 42.283 156.338 42.4998 156.338 42.7716C156.338 43.0194 156.286 43.231 156.183 43.4065C156.08 43.5785 155.94 43.7178 155.765 43.8245C155.589 43.9277 155.393 44.0034 155.176 44.0516C154.96 44.0998 154.739 44.1239 154.516 44.1239C154.254 44.1239 154.019 44.0963 153.809 44.0413C153.599 43.9897 153.422 43.9277 153.277 43.8555C153.136 43.7798 153.033 43.7144 152.967 43.6594L153.323 43.0194C153.413 43.1054 153.559 43.1966 153.762 43.2929C153.969 43.3892 154.203 43.4374 154.464 43.4374C154.753 43.4374 154.987 43.3772 155.166 43.2568C155.345 43.1329 155.434 42.9729 155.434 42.7768C155.434 42.6288 155.391 42.5101 155.305 42.4206C155.219 42.3312 155.104 42.2589 154.96 42.2039C154.815 42.1488 154.657 42.1006 154.485 42.0594C154.32 42.0215 154.158 41.9716 154 41.9097C153.845 41.8477 153.702 41.7686 153.571 41.6723C153.444 41.5725 153.342 41.452 153.267 41.311C153.191 41.1665 153.153 40.9978 153.153 40.8052C153.153 40.5609 153.231 40.3527 153.385 40.1806C153.54 40.0052 153.743 39.871 153.994 39.7781C154.246 39.6852 154.519 39.6387 154.815 39.6387ZM157.822 44.1239C157.633 44.1239 157.47 44.0568 157.332 43.9226C157.198 43.7849 157.131 43.6215 157.131 43.4323C157.131 43.2361 157.198 43.071 157.332 42.9368C157.47 42.7991 157.633 42.7303 157.822 42.7303C158.019 42.7303 158.184 42.7991 158.318 42.9368C158.452 43.071 158.519 43.2361 158.519 43.4323C158.519 43.6215 158.452 43.7849 158.318 43.9226C158.184 44.0568 158.019 44.1239 157.822 44.1239Z" fill="#841AAC"/>
<path d="M157.83 17.83H150.08L150.97 12.29H157.83V17.83Z" fill="url(#paint0_linear_863_4290)"/>
<path d="M157.83 6.43H144.7L146.59 0.75H157.83V6.43Z" fill="url(#paint1_linear_863_4290)"/>
<path d="M157.83 29.37H142.75L144.92 23.69H157.83V29.37Z" fill="url(#paint2_linear_863_4290)"/>
<path d="M27.54 7.53C26.53 5.34 25.01 3.63 22.98 2.39C20.94 1.15 18.38 0.53 15.28 0.53H6.55V6.36H14.69C16.35 6.36 17.73 6.75 18.83 7.51C19.93 8.27 20.75 9.31 21.28 10.62C21.82 11.94 22.08 13.42 22.08 15.08C22.08 16.74 21.81 18.21 21.26 19.52C20.71 20.83 19.89 21.87 18.81 22.62C17.72 23.38 16.35 23.76 14.69 23.76H13.13V29.59H15.28C18.38 29.59 20.94 28.96 22.98 27.72C25.01 26.47 26.53 24.75 27.54 22.57C28.56 20.38 29.06 17.87 29.06 15.04C29.06 12.21 28.56 9.72 27.54 7.53Z" fill="url(#paint3_linear_863_4290)"/>
<path d="M49.03 13.96L58.23 0.53H50.22L44.91 8.9L39.54 0.53H31.17L40.53 13.96V13.98L44.49 19.69L51.05 29.12L51.36 29.59H59.95L49.03 13.96ZM36.55 20L30.23 29.59H38.15L40.59 25.78L36.55 20Z" fill="url(#paint4_linear_863_4290)"/>
<path d="M62.01 15.04C62.01 12.93 62.38 10.96 63.13 9.13C63.88 7.3 64.93 5.71 66.28 4.34C67.63 2.97 69.21 1.91 71.03 1.15C72.85 0.39 74.82 0 76.93 0C79.04 0 81.05 0.38 82.86 1.15C84.67 1.92 86.25 2.98 87.59 4.34C88.93 5.7 89.98 7.3 90.72 9.13C91.46 10.96 91.83 12.93 91.83 15.04C91.83 17.15 91.47 19.15 90.75 20.97C90.03 22.79 89 24.4 87.67 25.77C86.33 27.14 84.76 28.21 82.94 28.97C81.12 29.73 79.12 30.11 76.93 30.11C74.74 30.11 72.67 29.73 70.84 28.97C69.01 28.21 67.44 27.14 66.12 25.77C64.8 24.4 63.78 22.8 63.07 20.97C62.36 19.14 62 17.17 62 15.04H62.01ZM68.86 15.04C68.86 16.7 69.2 18.2 69.88 19.54C70.56 20.88 71.51 21.95 72.72 22.74C73.93 23.53 75.34 23.93 76.94 23.93C78.54 23.93 79.94 23.53 81.15 22.74C82.36 21.95 83.31 20.88 83.99 19.54C84.67 18.2 85.01 16.7 85.01 15.04C85.01 13.38 84.67 11.88 83.99 10.55C83.31 9.22 82.36 8.15 81.15 7.35C79.94 6.55 78.53 6.15 76.94 6.15C75.35 6.15 73.93 6.55 72.72 7.35C71.51 8.15 70.56 9.22 69.88 10.55C69.2 11.89 68.86 13.38 68.86 15.04Z" fill="url(#paint5_linear_863_4290)"/>
<path d="M102.36 0.53V23.82H112.9V29.59H95.77V0.53H102.36Z" fill="url(#paint6_linear_863_4290)"/>
<path d="M130.75 29.59H123.31L112.97 0.53H120.39L127.04 21.2L133.68 0.53H141.1L130.75 29.59Z" fill="url(#paint7_linear_863_4290)"/>
<path d="M6.55 0.53H0V29.59H6.55V0.53Z" fill="url(#paint8_linear_863_4290)"/>
<path d="M51.38 29.59H51.36L51.05 29.12L51.38 29.59Z" fill="url(#paint9_linear_863_4290)"/>
<defs>
<linearGradient id="paint0_linear_863_4290" x1="-31.5" y1="30" x2="167.5" y2="30" gradientUnits="userSpaceOnUse">
<stop stop-color="#4B0CA9"/>
<stop offset="0.21534" stop-color="#6D0EAA"/>
<stop offset="0.399426" stop-color="#9F14A2"/>
<stop offset="0.550913" stop-color="#8A187C"/>
<stop offset="1" stop-color="#891991"/>
</linearGradient>
<linearGradient id="paint1_linear_863_4290" x1="-31.5" y1="30" x2="167.5" y2="30" gradientUnits="userSpaceOnUse">
<stop stop-color="#4B0CA9"/>
<stop offset="0.21534" stop-color="#6D0EAA"/>
<stop offset="0.399426" stop-color="#9F14A2"/>
<stop offset="0.550913" stop-color="#8A187C"/>
<stop offset="1" stop-color="#891991"/>
</linearGradient>
<linearGradient id="paint2_linear_863_4290" x1="-31.5" y1="30" x2="167.5" y2="30" gradientUnits="userSpaceOnUse">
<stop stop-color="#4B0CA9"/>
<stop offset="0.21534" stop-color="#6D0EAA"/>
<stop offset="0.399426" stop-color="#9F14A2"/>
<stop offset="0.550913" stop-color="#8A187C"/>
<stop offset="1" stop-color="#891991"/>
</linearGradient>
<linearGradient id="paint3_linear_863_4290" x1="-31.5" y1="30" x2="167.5" y2="30" gradientUnits="userSpaceOnUse">
<stop stop-color="#4B0CA9"/>
<stop offset="0.21534" stop-color="#6D0EAA"/>
<stop offset="0.399426" stop-color="#9F14A2"/>
<stop offset="0.550913" stop-color="#8A187C"/>
<stop offset="1" stop-color="#891991"/>
</linearGradient>
<linearGradient id="paint4_linear_863_4290" x1="-31.5" y1="30" x2="167.5" y2="30" gradientUnits="userSpaceOnUse">
<stop stop-color="#4B0CA9"/>
<stop offset="0.21534" stop-color="#6D0EAA"/>
<stop offset="0.399426" stop-color="#9F14A2"/>
<stop offset="0.550913" stop-color="#8A187C"/>
<stop offset="1" stop-color="#891991"/>
</linearGradient>
<linearGradient id="paint5_linear_863_4290" x1="-31.5" y1="30" x2="167.5" y2="30" gradientUnits="userSpaceOnUse">
<stop stop-color="#4B0CA9"/>
<stop offset="0.21534" stop-color="#6D0EAA"/>
<stop offset="0.399426" stop-color="#9F14A2"/>
<stop offset="0.550913" stop-color="#8A187C"/>
<stop offset="1" stop-color="#891991"/>
</linearGradient>
<linearGradient id="paint6_linear_863_4290" x1="-31.5" y1="30" x2="167.5" y2="30" gradientUnits="userSpaceOnUse">
<stop stop-color="#4B0CA9"/>
<stop offset="0.21534" stop-color="#6D0EAA"/>
<stop offset="0.399426" stop-color="#9F14A2"/>
<stop offset="0.550913" stop-color="#8A187C"/>
<stop offset="1" stop-color="#891991"/>
</linearGradient>
<linearGradient id="paint7_linear_863_4290" x1="-31.5" y1="30" x2="167.5" y2="30" gradientUnits="userSpaceOnUse">
<stop stop-color="#4B0CA9"/>
<stop offset="0.21534" stop-color="#6D0EAA"/>
<stop offset="0.399426" stop-color="#9F14A2"/>
<stop offset="0.550913" stop-color="#8A187C"/>
<stop offset="1" stop-color="#891991"/>
</linearGradient>
<linearGradient id="paint8_linear_863_4290" x1="-31.5" y1="30" x2="167.5" y2="30" gradientUnits="userSpaceOnUse">
<stop stop-color="#4B0CA9"/>
<stop offset="0.21534" stop-color="#6D0EAA"/>
<stop offset="0.399426" stop-color="#9F14A2"/>
<stop offset="0.550913" stop-color="#8A187C"/>
<stop offset="1" stop-color="#891991"/>
</linearGradient>
<linearGradient id="paint9_linear_863_4290" x1="-31.5" y1="30" x2="167.5" y2="30" gradientUnits="userSpaceOnUse">
<stop stop-color="#4B0CA9"/>
<stop offset="0.21534" stop-color="#6D0EAA"/>
<stop offset="0.399426" stop-color="#9F14A2"/>
<stop offset="0.550913" stop-color="#8A187C"/>
<stop offset="1" stop-color="#891991"/>
</linearGradient>
</defs>
</svg>
