<svg width="439" height="313" viewBox="0 0 439 313" fill="none" xmlns="http://www.w3.org/2000/svg">
<path d="M438.8 311.814C438.8 311.964 340.56 312.074 219.41 312.074C98.26 312.074 0 311.964 0 311.814C0 311.664 98.22 311.554 219.41 311.554C340.6 311.554 438.8 311.674 438.8 311.814Z" fill="#263238"/>
<path d="M53.4622 261.674C53.4622 261.674 27.0422 231.264 17.0722 200.854C7.10217 170.444 11.8322 173.934 11.8322 173.934C11.8322 173.934 25.2922 203.474 35.5122 217.744C45.7322 232.014 63.9322 252.944 63.9322 252.944L53.4622 261.674Z" fill="#44047E"/>
<path d="M58.7223 178.664C58.5442 178.351 58.2617 178.11 57.9243 177.983C57.5868 177.857 57.2157 177.853 56.8755 177.972C56.5353 178.091 56.2476 178.325 56.0624 178.634C55.8773 178.944 55.8065 179.308 55.8623 179.664C57.4723 190.354 60.9523 215.414 60.8623 231.664C60.6923 252.784 60.8623 260.944 60.8623 260.944H71.8623C71.8623 260.944 69.8623 217.284 67.4223 203.944C65.6423 194.634 61.9423 184.274 58.7223 178.664Z" fill="#44047E"/>
<path d="M64.7227 257.384C69.3318 246.943 72.3811 235.882 73.7727 224.554C74.6727 216.784 73.0627 206.274 70.6627 192.254C69.7307 187.127 69.2655 181.925 69.2727 176.714C69.2781 176.134 69.4759 175.572 69.835 175.117C70.1941 174.661 70.6943 174.338 71.2571 174.197C71.8199 174.056 72.4134 174.106 72.9447 174.339C73.476 174.572 73.9149 174.975 74.1927 175.484C75.5227 177.854 79.3627 185.944 80.3427 191.014C83.0027 204.854 86.0127 211.774 83.7127 224.914C81.4127 238.054 72.8827 258.274 72.8827 258.274L64.7227 257.384Z" fill="#44047E"/>
<path d="M74.6211 258.274C74.6211 258.274 103.621 195.934 105.621 186.684C107.621 177.434 114.471 156.124 115.271 157.334C116.071 158.544 117.271 169.794 112.061 182.664C106.851 195.534 84.5111 260.174 84.5111 260.174H74.6211" fill="#44047E"/>
<path d="M61.5416 255.484C61.2544 255.324 60.9831 255.136 60.7316 254.924C60.2116 254.534 59.4316 253.984 58.4816 253.214C56.5516 251.694 53.8416 249.384 50.6816 246.334C42.5316 238.291 35.4714 229.213 29.6816 219.334C23.8971 209.449 19.0846 199.027 15.3116 188.214C13.8516 184.074 12.7916 180.684 12.1016 178.334C11.7416 177.154 11.5016 176.234 11.3316 175.614C11.2257 175.288 11.1487 174.953 11.1016 174.614C11.2444 174.91 11.3615 175.218 11.4516 175.534C11.6716 176.204 11.9616 177.104 12.3316 178.224C13.0916 180.554 14.2216 183.914 15.7216 188.034C19.6073 198.767 24.4571 209.126 30.2116 218.984C36.0002 228.816 42.9944 237.886 51.0316 245.984C54.1416 249.074 56.7916 251.424 58.6716 252.984C59.6016 253.784 60.3616 254.364 60.8416 254.784C61.0935 254.998 61.3276 255.232 61.5416 255.484Z" fill="#263238"/>
<path d="M64.7213 225.574C64.5704 224.975 64.4832 224.362 64.4613 223.744C64.3213 222.454 64.1412 220.744 63.9212 218.744C63.4612 214.524 62.7413 208.744 61.7213 202.314C60.7013 195.884 59.5513 190.174 58.6613 186.034C58.2313 184.034 57.8812 182.384 57.6012 181.114C57.4395 180.518 57.3324 179.909 57.2812 179.294C57.5182 179.864 57.7056 180.452 57.8413 181.054C58.1613 182.204 58.5913 183.864 59.0913 185.934C60.0913 190.064 61.3013 195.814 62.3313 202.224C63.3613 208.634 64.0113 214.464 64.3313 218.704C64.5013 220.814 64.6212 222.534 64.6712 223.704C64.7398 224.325 64.7565 224.95 64.7213 225.574Z" fill="#263238"/>
<path d="M71.512 174.994C71.6543 175.244 71.7683 175.509 71.852 175.784L72.722 178.104C73.112 179.104 73.552 180.344 73.972 181.814C74.392 183.284 74.972 184.924 75.382 186.814L76.102 189.744C76.342 190.744 76.512 191.844 76.732 192.954C77.212 195.164 77.502 197.564 77.852 200.084C78.477 205.567 78.7109 211.088 78.552 216.604C78.3169 222.122 77.6886 227.616 76.672 233.044C76.142 235.524 75.672 237.904 75.052 240.044C74.742 241.134 74.492 242.204 74.182 243.204L73.252 246.124C72.702 247.964 72.022 249.574 71.492 251.004C70.962 252.434 70.492 253.644 69.982 254.614L68.982 256.864C68.8768 257.131 68.7427 257.386 68.582 257.624C68.6497 257.346 68.7434 257.075 68.862 256.814C69.102 256.234 69.412 255.474 69.792 254.524C70.172 253.574 70.702 252.324 71.192 250.874C71.682 249.424 72.342 247.874 72.872 245.984C73.152 245.074 73.442 244.114 73.752 243.114C74.062 242.114 74.292 241.054 74.582 239.964C75.182 237.794 75.582 235.434 76.142 232.964C77.1168 227.561 77.7248 222.099 77.962 216.614C78.1196 211.129 77.9058 205.64 77.322 200.184C76.982 197.674 76.712 195.284 76.262 193.074C76.052 191.974 75.892 190.894 75.662 189.874C75.432 188.854 75.202 187.874 74.982 186.944C74.592 185.074 74.062 183.424 73.672 181.944C73.282 180.464 72.872 179.224 72.522 178.204L71.772 175.854C71.6571 175.577 71.5701 175.289 71.512 174.994Z" fill="#263238"/>
<path d="M114.961 158.584C114.972 158.677 114.972 158.771 114.961 158.864C114.961 159.084 114.881 159.344 114.831 159.674C114.701 160.384 114.541 161.434 114.261 162.774C113.701 165.454 112.761 169.314 111.261 173.994C109.761 178.674 107.841 184.174 105.491 190.204C103.141 196.234 100.431 202.814 97.8511 209.814C95.2711 216.814 93.2211 223.624 91.3311 229.814C89.4411 236.004 87.6711 241.564 85.9511 246.154C84.6347 249.793 83.1157 253.355 81.4011 256.824C80.8111 258.054 80.2711 258.974 79.9311 259.614L79.5211 260.324C79.4311 260.484 79.3811 260.564 79.3711 260.554C79.3897 260.462 79.4235 260.375 79.4711 260.294L79.8211 259.554C80.1311 258.904 80.6311 257.964 81.1911 256.714C82.3511 254.244 83.9311 250.614 85.5711 246.004C87.2111 241.394 88.9711 235.854 90.8111 229.654C92.6511 223.454 94.6811 216.654 97.3011 209.654C99.9211 202.654 102.621 196.064 104.991 190.044C107.361 184.024 109.381 178.574 110.881 173.914C112.381 169.254 113.371 165.434 114.001 162.774C114.321 161.444 114.521 160.404 114.691 159.694C114.761 159.374 114.831 159.114 114.881 158.904C114.888 158.793 114.915 158.685 114.961 158.584Z" fill="#263238"/>
<path d="M25.5129 144.814C25.1151 144.426 24.5992 144.183 24.0471 144.122C23.4951 144.062 22.9386 144.187 22.4661 144.479C21.9937 144.771 21.6324 145.213 21.4398 145.734C21.2471 146.255 21.2341 146.825 21.4029 147.354C22.3934 150.563 23.6097 153.697 25.0429 156.734C29.0429 165.204 40.7429 195.614 46.2329 212.314C51.7229 229.014 59.4029 260.174 59.4029 260.174L71.1129 258.274C71.1129 258.274 60.4029 207.124 49.9729 188.634C41.5629 173.814 33.1429 152.394 25.5129 144.814Z" fill="#44047E"/>
<path d="M49.4023 222.764C49.6596 223.205 49.8643 223.675 50.0123 224.164C50.3523 225.084 50.8323 226.424 51.3623 228.094C52.4423 231.434 53.7623 236.094 55.0823 241.284C56.4023 246.474 57.5223 251.194 58.2923 254.614C58.6423 256.224 58.9323 257.614 59.1723 258.664C59.302 259.158 59.3824 259.664 59.4123 260.174C59.2034 259.708 59.0426 259.222 58.9323 258.724C58.6523 257.654 58.2923 256.314 57.8623 254.724C56.9623 251.204 55.7923 246.574 54.4823 241.454C53.1723 236.334 51.9123 231.594 50.9423 228.234C50.4823 226.644 50.0923 225.314 49.7823 224.234C49.6071 223.758 49.4798 223.265 49.4023 222.764Z" fill="#263238"/>
<path d="M65.3228 259.224C65.2897 259.124 65.2695 259.02 65.2628 258.914C65.2628 258.664 65.1828 258.364 65.1228 257.994C65.0028 257.184 64.8928 255.994 64.6428 254.444C64.2128 251.364 63.4528 246.934 62.1928 241.524C60.6934 235.199 58.8642 228.958 56.7128 222.824C54.3028 215.884 51.2928 208.384 47.8828 200.624C40.9928 185.134 34.1128 171.384 29.5828 161.224C27.3028 156.144 25.5828 152.014 24.3628 149.124C23.7728 147.684 23.3628 146.554 23.0528 145.794C22.9128 145.444 22.8128 145.154 22.7228 144.924C22.6781 144.826 22.6478 144.721 22.6328 144.614C22.6937 144.701 22.744 144.795 22.7828 144.894L23.1628 145.744C23.5128 146.544 23.9828 147.644 24.5928 149.034C25.8228 151.884 27.6528 156.034 29.9828 161.034C34.6028 171.124 41.5528 184.854 48.4528 200.374C51.8628 208.144 54.8728 215.664 57.2528 222.634C59.3878 228.797 61.1806 235.073 62.6228 241.434C63.5954 245.726 64.3497 250.065 64.8828 254.434C65.0928 255.974 65.1628 257.184 65.2528 257.994L65.3228 258.924C65.3344 259.024 65.3344 259.124 65.3228 259.224Z" fill="#263238"/>
<path d="M71.152 258.274C70.9659 257.619 70.8322 256.95 70.752 256.274C70.522 254.904 70.212 253.084 69.842 250.894C69.042 246.354 67.842 240.104 66.032 233.304C64.222 226.504 62.302 220.474 60.782 216.124C60.042 214.024 59.422 212.294 58.952 210.984C58.6941 210.365 58.4868 209.726 58.332 209.074C58.6657 209.656 58.9501 210.265 59.182 210.894C59.682 212.084 60.392 213.814 61.182 215.974C63.2988 221.61 65.1147 227.355 66.622 233.184C68.136 239.009 69.3542 244.906 70.272 250.854C70.602 253.134 70.852 254.984 70.982 256.274C71.0888 256.936 71.1457 257.604 71.152 258.274Z" fill="#263238"/>
<path d="M95.1905 256.594H49.4805V312.284H95.1905V256.594Z" fill="#7E57C2"/>
<g opacity="0.3">
<path d="M95.1905 256.594H49.4805V312.284H95.1905V256.594Z" fill="black"/>
</g>
<path d="M80.6008 256.594H40.0508V312.284H80.6008V256.594Z" fill="#7E57C2"/>
<path d="M362.309 132.694L338.279 129.214L290.209 136.324L276.719 141.094L279.109 170.594L325.329 179.104L356.509 169.864L368.299 152.514L362.309 132.694Z" fill="#E59C9F"/>
<path d="M377.461 135.514L357.341 130.774C357.341 130.774 343.131 174.774 308.041 172.844C279.441 171.294 279.111 139.374 279.111 139.374L258.501 145.974C258.501 145.974 250.611 198.844 259.341 236.304C261.341 245.054 264.111 256.844 264.111 256.844L261.321 311.574L413.761 311.814L377.461 135.514Z" fill="#7E57C2"/>
<g opacity="0.3">
<path d="M317.699 300.954C325.119 300.764 331.959 301.394 339.379 301.214C348.279 300.994 357.249 300.774 366.039 302.214C372.619 303.304 379.039 305.304 385.619 306.344C394.619 307.764 404.209 307.264 412.209 302.934L410.919 295.464L380.539 288.124L317.699 300.954Z" fill="black"/>
</g>
<path d="M241.29 158.294C248.29 149.294 259.85 145.544 259.85 145.544L267.65 213.434L252.88 312.294L204.5 312.064C204.5 312.064 231.18 171.344 241.29 158.294Z" fill="#7E57C2"/>
<path d="M375.108 135.014C375.108 135.014 407.669 137.624 419.349 191.014C424.629 215.144 431.348 243.414 433.238 262.424C434.628 276.204 427.138 297.784 413.398 299.554L396.118 301.874C392.73 302.362 389.282 302.237 385.939 301.504C375.029 298.994 373.939 291.504 371.939 283.504L366.939 267.584C364.179 252.444 378.288 249.584 386.078 249.794L380.268 180.684L375.108 135.014Z" fill="#7E57C2"/>
<path d="M255.819 183.294C255.743 183.535 255.693 183.783 255.669 184.034C255.589 184.574 255.479 185.294 255.339 186.184C255.279 186.654 255.199 187.184 255.119 187.744C255.039 188.304 254.999 188.934 254.929 189.604C254.789 190.934 254.629 192.454 254.559 194.144C254.328 198.097 254.301 202.059 254.479 206.014C254.718 210.852 255.198 215.675 255.919 220.464C256.669 225.574 257.609 230.394 258.569 234.754C259.529 239.114 260.459 243.024 261.279 246.304C262.099 249.584 262.789 252.214 263.279 254.034C263.519 254.904 263.709 255.604 263.859 256.124C263.913 256.372 263.994 256.614 264.099 256.844C264.078 256.594 264.031 256.346 263.959 256.104C263.839 255.564 263.679 254.864 263.479 253.984C263.029 252.094 262.399 249.454 261.619 246.214C260.839 242.974 259.939 239.014 259.029 234.654C258.119 230.294 257.169 225.484 256.429 220.394C255.689 215.304 255.169 210.394 254.949 205.984C254.729 201.574 254.719 197.524 254.949 194.164C254.999 192.474 255.129 190.964 255.239 189.624C255.286 188.958 255.336 188.338 255.389 187.764C255.449 187.204 255.509 186.684 255.559 186.204C255.659 185.314 255.739 184.594 255.789 184.044C255.824 183.796 255.834 183.545 255.819 183.294Z" fill="#263238"/>
<path d="M411.631 268.494C411.609 268.03 411.532 267.57 411.401 267.124C411.082 265.92 410.661 264.746 410.141 263.614C408.433 259.84 405.773 256.573 402.424 254.135C399.074 251.697 395.148 250.17 391.031 249.704C389.794 249.554 388.546 249.514 387.301 249.584C386.843 249.59 386.387 249.647 385.941 249.754C387.613 249.764 389.282 249.867 390.941 250.064C394.965 250.623 398.788 252.165 402.073 254.555C405.358 256.945 408.002 260.108 409.771 263.764C410.474 265.307 411.095 266.886 411.631 268.494Z" fill="#263238"/>
<path d="M404.109 241.914C403.851 241.849 403.585 241.826 403.319 241.844C402.601 241.831 401.883 241.865 401.169 241.944C398.808 242.184 396.495 242.764 394.299 243.664C392.106 244.575 390.053 245.79 388.199 247.274C387.64 247.721 387.109 248.202 386.609 248.714C386.259 249.084 386.079 249.294 386.099 249.324C386.119 249.354 386.979 248.624 388.429 247.564C392.2 244.795 396.591 242.989 401.219 242.304C402.989 242.044 404.109 242.004 404.109 241.914Z" fill="#263238"/>
<path d="M370.399 172.844C370.472 172.371 370.499 171.892 370.479 171.414C370.479 170.494 370.539 169.174 370.649 167.544C371.232 159.019 373.568 150.706 377.509 143.124C378.259 141.674 378.909 140.514 379.379 139.734C379.642 139.337 379.867 138.915 380.049 138.474C379.73 138.83 379.445 139.215 379.199 139.624C378.679 140.384 377.979 141.514 377.199 142.954C373.048 150.511 370.687 158.921 370.299 167.534C370.239 169.174 370.239 170.534 370.299 171.424C370.283 171.9 370.317 172.376 370.399 172.844Z" fill="#263238"/>
<path d="M308.039 221.274C308.061 221.466 308.108 221.655 308.179 221.834C308.299 222.194 308.449 222.744 308.719 223.404C309.448 225.315 310.355 227.153 311.429 228.894C314.978 234.699 320.129 239.355 326.262 242.3C332.396 245.245 339.25 246.354 345.999 245.494C348.035 245.241 350.043 244.803 351.999 244.184C352.689 243.974 353.209 243.744 353.559 243.614C353.743 243.555 353.92 243.478 354.089 243.384C354.089 243.334 353.319 243.594 351.939 243.984C349.975 244.535 347.968 244.916 345.939 245.124C339.267 245.909 332.509 244.782 326.453 241.875C320.396 238.968 315.29 234.401 311.729 228.704C310.64 226.993 309.691 225.197 308.889 223.334C308.399 222.014 308.079 221.254 308.039 221.274Z" fill="#263238"/>
<path d="M376.66 296.324C376.71 296.274 377.22 297.004 378.44 298.004C380.225 299.351 382.267 300.318 384.44 300.844C387.641 301.645 390.948 301.939 394.24 301.714C397.96 301.444 402.07 301.004 406.33 300.374C410.343 299.855 414.295 298.944 418.13 297.654C419.731 296.951 421.196 295.973 422.46 294.764C423.575 293.719 424.58 292.563 425.46 291.314C426.764 289.51 427.88 287.576 428.79 285.544C429.1 284.814 429.34 284.254 429.49 283.864C429.549 283.66 429.637 283.465 429.75 283.284C429.713 283.491 429.659 283.695 429.59 283.894C429.47 284.304 429.26 284.894 428.97 285.624C428.131 287.711 427.054 289.694 425.76 291.534C424.886 292.815 423.88 294.002 422.76 295.074C421.471 296.331 419.967 297.347 418.32 298.074C414.461 299.415 410.473 300.35 406.42 300.864C402.13 301.504 398.03 301.924 394.28 302.174C390.938 302.371 387.586 302.033 384.35 301.174C382.161 300.609 380.116 299.587 378.35 298.174C377.885 297.773 377.46 297.327 377.08 296.844C376.919 296.69 376.777 296.515 376.66 296.324Z" fill="#263238"/>
<path d="M371.29 189.844C371.42 189.844 374.86 203.134 378.95 219.614C383.04 236.094 386.25 249.474 386.11 249.514C385.97 249.554 382.54 236.214 378.45 219.734C374.36 203.254 371.15 189.874 371.29 189.844Z" fill="#263238"/>
<path d="M367.139 265.124C367.032 264.767 366.975 264.397 366.969 264.024C366.869 263.028 366.846 262.025 366.899 261.024C367.013 259.498 367.52 258.027 368.369 256.754C368.85 255.997 369.41 255.293 370.039 254.654C370.736 253.989 371.511 253.411 372.349 252.934C375.311 251.38 378.517 250.345 381.829 249.874C382.823 249.731 383.825 249.644 384.829 249.614C385.197 249.56 385.571 249.56 385.939 249.614C385.939 249.694 384.369 249.754 381.879 250.204C378.641 250.762 375.51 251.821 372.599 253.344C371.796 253.801 371.051 254.351 370.379 254.984C369.772 255.594 369.229 256.264 368.759 256.984C367.931 258.17 367.415 259.546 367.259 260.984C367.17 261.982 367.14 262.983 367.169 263.984C367.203 264.364 367.193 264.747 367.139 265.124Z" fill="#263238"/>
<g opacity="0.3">
<path d="M257.319 228.124C249.009 214.054 248.829 195.774 256.079 181.124C253.757 196.733 254.258 212.632 257.559 228.064" fill="black"/>
</g>
<path d="M270.568 291.234C273.188 286.294 293.618 273.234 293.618 273.234L288.088 271.954L281.978 274.534C281.516 276.606 280.62 278.555 279.348 280.254C277.108 283.454 273.298 280.144 273.298 280.144L275.878 267.774L287.958 260.504C287.958 260.504 299.318 262.244 301.158 263.124L305.998 267.554C308.128 269.224 314.268 275.794 315.948 275.994C317.628 276.194 370.398 264.344 370.398 264.344C377.628 270.074 381.398 281.444 382.578 289.654C382.578 289.654 383.868 293.654 382.468 295.874L317.738 300.954L304.018 304.744C300.344 306.264 296.581 307.556 292.748 308.614C288.188 309.614 285.118 308.104 284.988 305.614C284.858 303.124 288.408 302.814 288.408 302.814C291.435 301.728 294.382 300.432 297.228 298.934C299.312 297.546 301.028 295.672 302.228 293.474L297.338 294.054C297.338 294.054 286.938 301.274 283.028 303.394C279.118 305.514 278.348 301.624 278.028 300.394C277.708 299.164 289.708 287.484 289.708 287.484C289.708 287.484 278.298 294.484 276.248 296.284C274.198 298.084 271.158 298.594 270.508 297.404C269.858 296.214 267.958 296.174 270.568 291.234Z" fill="#E59C9F"/>
<path d="M326.831 292.374C326.89 292.112 326.91 291.842 326.891 291.574C326.903 291.26 326.883 290.945 326.831 290.634C326.791 290.218 326.714 289.807 326.601 289.404C325.951 287.069 324.824 284.893 323.291 283.014C321.797 281.129 320.123 279.394 318.291 277.834C317.573 277.148 316.786 276.538 315.941 276.014C316.607 276.745 317.315 277.436 318.061 278.084C319.803 279.704 321.421 281.453 322.901 283.314C324.4 285.145 325.54 287.241 326.261 289.494C326.781 291.234 326.731 292.384 326.831 292.374Z" fill="#EB996E"/>
<path d="M294.09 272.864C295.26 273.037 296.454 272.93 297.575 272.553C298.696 272.176 299.712 271.539 300.54 270.694C300.46 270.584 299.21 271.514 297.42 272.094C295.63 272.674 294.09 272.724 294.09 272.864Z" fill="#EB996E"/>
<path d="M290.691 286.404C294.212 285.3 297.632 283.895 300.911 282.204C299.126 282.676 297.386 283.305 295.711 284.084C293.975 284.714 292.296 285.49 290.691 286.404Z" fill="#EB996E"/>
<path d="M301.648 293.324C302.569 293.113 303.462 292.795 304.308 292.374C305.217 292.11 306.09 291.737 306.908 291.264C305 291.459 303.181 292.171 301.648 293.324Z" fill="#EB996E"/>
<path d="M292.398 287.304C293.132 287.81 293.803 288.401 294.398 289.064C294.882 289.821 295.271 290.634 295.558 291.484C295.618 291.484 295.678 291.154 295.558 290.634C295.437 289.958 295.155 289.32 294.738 288.774C294.325 288.228 293.787 287.789 293.168 287.494C292.718 287.274 292.398 287.254 292.398 287.304Z" fill="#EB996E"/>
<path d="M287.582 279.754C287.512 279.874 288.412 280.364 289.002 281.394C289.302 282.056 289.546 282.742 289.732 283.444C289.877 283.061 289.923 282.648 289.865 282.242C289.807 281.836 289.648 281.452 289.402 281.124C288.732 279.964 287.602 279.624 287.582 279.754Z" fill="#EB996E"/>
<path d="M289.2 266.254C289.26 266.254 289.44 266.054 289.59 265.604C289.744 265.014 289.744 264.394 289.59 263.804C289.447 263.211 289.15 262.667 288.73 262.224C288.4 261.894 288.13 261.774 288.09 261.824C288.508 262.48 288.844 263.186 289.09 263.924C289.232 264.692 289.269 265.476 289.2 266.254Z" fill="#EB996E"/>
<path d="M382.998 297.724C382.932 297.231 382.905 296.732 382.918 296.234C382.918 295.754 382.918 295.174 382.848 294.494C382.778 293.814 382.788 293.044 382.688 292.204C382.313 287.766 381.362 283.396 379.858 279.204C379.014 276.914 377.99 274.694 376.798 272.564C376.198 271.564 375.678 270.674 375.078 269.864C374.798 269.454 374.518 269.064 374.248 268.684C373.978 268.304 373.688 267.964 373.418 267.684C371.268 265.034 369.618 263.684 369.698 263.604C370.117 263.871 370.506 264.183 370.858 264.534C371.308 264.912 371.736 265.316 372.138 265.744C372.608 266.234 373.138 266.744 373.708 267.444C373.978 267.784 374.268 268.124 374.568 268.444C374.868 268.764 375.138 269.214 375.438 269.624C376.058 270.434 376.598 271.374 377.208 272.334C378.443 274.474 379.494 276.716 380.348 279.034C381.865 283.258 382.778 287.675 383.058 292.154C383.128 293.004 383.118 293.784 383.138 294.464C383.158 295.144 383.138 295.734 383.138 296.214C383.143 296.721 383.096 297.227 382.998 297.724Z" fill="#263238"/>
<g opacity="0.3">
<path d="M405.211 251.474C399.141 248.968 392.455 248.358 386.031 249.724C391.553 249.47 397.016 250.946 401.657 253.948C406.299 256.949 409.887 261.325 411.921 266.464C412.381 267.704 413.301 269.174 414.621 268.984C415.941 268.794 416.301 267.264 416.301 266.034C416.311 259.564 411.181 253.964 405.211 251.474Z" fill="black"/>
</g>
<path d="M255.4 178.714C255.101 178.66 254.811 178.562 254.54 178.424C253.99 178.214 253.22 177.864 252.28 177.424C249.827 176.2 247.485 174.764 245.28 173.134C243.083 171.512 241.029 169.706 239.14 167.734C238.42 166.974 237.85 166.334 237.49 165.884C237.13 165.434 236.93 165.164 236.96 165.134C236.99 165.104 237.9 166.034 239.4 167.474C241.349 169.354 243.417 171.108 245.59 172.724C247.77 174.327 250.051 175.787 252.42 177.094C254.3 178.124 255.46 178.644 255.4 178.714Z" fill="#F8E8FF"/>
<path d="M370.87 182.484C370.795 182.552 370.711 182.609 370.62 182.654L369.85 183.114C369.18 183.524 368.16 184.114 366.85 184.774C363.096 186.701 359.201 188.343 355.2 189.684C349.256 191.651 343.158 193.116 336.97 194.064C329.393 195.192 321.75 195.827 314.09 195.964C305.94 196.154 298.18 195.964 291.09 195.844C284.834 195.757 278.589 195.286 272.39 194.434C268.208 193.841 264.086 192.884 260.07 191.574C258.66 191.094 257.57 190.694 256.85 190.384L256.03 190.034C255.932 190.001 255.839 189.957 255.75 189.904L256.05 189.984L256.89 190.284C257.62 190.564 258.72 190.934 260.14 191.384C264.162 192.606 268.275 193.506 272.44 194.074C278.63 194.866 284.86 195.296 291.1 195.364C298.1 195.494 305.9 195.634 314.03 195.444C321.668 195.31 329.291 194.689 336.85 193.584C343.019 192.667 349.103 191.246 355.04 189.334C359.039 188.028 362.942 186.444 366.72 184.594C368.05 183.934 369.08 183.404 369.72 183.024L370.51 182.614C370.77 182.514 370.86 182.474 370.87 182.484Z" fill="#F8E8FF"/>
<path d="M255.779 218.124C255.357 218.086 254.941 217.998 254.539 217.864L251.209 216.954C248.409 216.164 244.549 215.034 240.289 213.764C236.029 212.494 232.189 211.304 229.409 210.424L226.129 209.364C225.723 209.248 225.328 209.094 224.949 208.904C225.371 208.943 225.787 209.03 226.189 209.164L229.519 210.074C232.319 210.864 236.179 211.994 240.439 213.264C244.699 214.534 248.539 215.714 251.319 216.594L254.599 217.664C255.008 217.776 255.403 217.93 255.779 218.124Z" fill="#F8E8FF"/>
<path d="M258.688 273.394C258.688 273.524 248.688 270.664 236.388 266.994C224.088 263.324 214.198 260.234 214.238 260.094C214.278 259.954 224.238 262.814 236.538 266.494C248.838 270.174 258.728 273.254 258.688 273.394Z" fill="#F8E8FF"/>
<path d="M403.22 153.814C402.884 154.141 402.515 154.432 402.12 154.684C401.4 155.214 400.32 155.954 398.97 156.834C391.907 161.403 384.332 165.125 376.4 167.924C374.88 168.454 373.64 168.854 372.77 169.104C372.33 169.265 371.874 169.379 371.41 169.444C371.827 169.229 372.262 169.051 372.71 168.914L376.28 167.584C379.28 166.434 383.39 164.734 387.79 162.584C392.19 160.434 396.05 158.214 398.79 156.534L402.03 154.534C402.402 154.256 402.801 154.015 403.22 153.814Z" fill="#F8E8FF"/>
<path d="M423.141 210.634C422.62 210.93 422.079 211.187 421.521 211.404C420.471 211.874 418.911 212.494 416.971 213.204C406.83 216.897 396.183 219.015 385.401 219.484C383.331 219.574 381.661 219.594 380.501 219.554C379.903 219.567 379.305 219.541 378.711 219.474C379.303 219.385 379.902 219.344 380.501 219.354C381.651 219.354 383.321 219.254 385.381 219.114C390.737 218.774 396.065 218.083 401.331 217.044C406.592 215.987 411.78 214.591 416.861 212.864C418.811 212.194 420.381 211.624 421.461 211.214C422.003 210.973 422.565 210.779 423.141 210.634Z" fill="#F8E8FF"/>
<path d="M394.4 301.514C394.392 301.326 394.409 301.138 394.45 300.954C394.51 300.544 394.6 300.024 394.7 299.384C394.8 298.744 394.95 297.864 395.05 296.884C395.15 295.904 395.32 294.804 395.36 293.564C395.36 292.954 395.44 292.304 395.48 291.634C395.52 290.964 395.48 290.254 395.48 289.534C395.48 288.084 395.42 286.534 395.34 284.904C395.077 281.374 394.539 277.87 393.73 274.424C392.881 270.987 391.768 267.62 390.4 264.354C389.72 262.874 389.11 261.444 388.4 260.174C388.06 259.534 387.75 258.904 387.4 258.314L386.4 256.654C385.79 255.574 385.13 254.654 384.6 253.844C384.07 253.034 383.6 252.334 383.15 251.784L382.21 250.494C382.09 250.352 381.989 250.194 381.91 250.024C382.049 250.146 382.176 250.28 382.29 250.424L383.29 251.664C383.835 252.304 384.346 252.971 384.82 253.664C385.38 254.474 386.06 255.374 386.69 256.444L387.69 258.104C388.04 258.684 388.36 259.324 388.69 259.964C389.41 261.234 390.05 262.664 390.69 264.154C393.571 270.707 395.264 277.719 395.69 284.864C395.75 286.504 395.84 288.064 395.78 289.524C395.78 290.254 395.78 290.964 395.72 291.644C395.66 292.324 395.62 292.964 395.57 293.584C395.5 294.834 395.3 295.934 395.17 296.914C395.04 297.894 394.89 298.734 394.74 299.404C394.59 300.074 394.48 300.554 394.39 300.974C394.413 301.153 394.416 301.334 394.4 301.514Z" fill="#F8E8FF"/>
<path d="M432.98 270.864C432.93 270.864 432.9 270.044 432.67 268.604C432.316 266.57 431.641 264.606 430.67 262.784C429.246 260.08 427.33 257.665 425.02 255.664C422.204 253.195 418.942 251.287 415.41 250.044C411.856 248.857 408.145 248.21 404.4 248.124C401.335 248.039 398.269 248.156 395.22 248.474C392.61 248.714 390.5 248.984 389.04 249.144L387.36 249.324C387.164 249.351 386.965 249.351 386.77 249.324C386.953 249.256 387.145 249.213 387.34 249.194L389.01 248.914C390.46 248.684 392.57 248.374 395.18 248.074C398.245 247.709 401.333 247.555 404.42 247.614C408.216 247.689 411.979 248.34 415.58 249.544C419.174 250.817 422.488 252.773 425.34 255.304C427.676 257.356 429.598 259.838 431 262.614C431.949 264.495 432.568 266.524 432.83 268.614C432.908 269.178 432.948 269.746 432.95 270.314C432.98 270.496 432.99 270.68 432.98 270.864Z" fill="#F8E8FF"/>
<path d="M325.4 241.914C325.215 241.971 325.024 242.005 324.83 242.014L323.2 242.184L317.2 242.684C312.13 243.074 305.12 243.554 297.38 243.954C289.64 244.354 282.61 244.604 277.52 244.664C274.98 244.664 272.92 244.664 271.52 244.664H269.89C269.698 244.671 269.507 244.65 269.32 244.604C269.508 244.566 269.699 244.549 269.89 244.554H271.52L277.52 244.404C282.59 244.254 289.61 243.954 297.35 243.544L317.17 242.424L323.17 242.084L324.81 242.014C325.002 241.955 325.2 241.922 325.4 241.914Z" fill="#F8E8FF"/>
<g opacity="0.3">
<path d="M331.21 243.994C337.51 245.844 346.21 246.294 352.38 243.994C347.58 250.824 338.31 253.294 330.26 251.074C322.21 248.854 314.8 240.804 314.18 232.474C318.08 237.724 324.91 242.124 331.21 243.994Z" fill="black"/>
</g>
<path d="M382.298 237.404C382.133 237.465 381.962 237.512 381.788 237.544L380.338 237.854C379.068 238.114 377.238 238.454 374.958 238.854C370.408 239.654 364.098 240.634 357.108 241.494C350.118 242.354 343.748 242.914 339.108 243.234C336.808 243.394 334.938 243.504 333.648 243.554L332.168 243.604C331.996 243.633 331.821 243.633 331.648 243.604C331.815 243.561 331.986 243.535 332.158 243.524L333.638 243.374L339.078 242.884C343.678 242.474 350.018 241.884 357.018 240.994C364.018 240.104 370.308 239.214 374.868 238.514L380.268 237.674L381.748 237.464C381.927 237.412 382.113 237.392 382.298 237.404Z" fill="#F8E8FF"/>
<g opacity="0.3">
<path d="M371.82 192.884C370.24 210.984 375.17 228.944 380.06 246.444C380.278 247.532 380.735 248.557 381.4 249.444C381.744 249.888 382.221 250.208 382.762 250.358C383.303 250.507 383.877 250.478 384.4 250.274C385.93 249.494 385.72 247.274 385.29 245.634L371.7 193.634" fill="black"/>
</g>
<path d="M118.618 210.914L139.168 311.814H317.568C318.512 311.814 319.418 311.439 320.085 310.772C320.753 310.104 321.128 309.199 321.128 308.254C321.128 307.31 320.753 306.405 320.085 305.737C319.418 305.069 318.512 304.694 317.568 304.694H281.648L262.598 210.854C262.42 209.98 261.947 209.194 261.259 208.626C260.572 208.059 259.71 207.744 258.818 207.734L122.478 206.244C121.897 206.237 121.322 206.36 120.794 206.604C120.267 206.848 119.801 207.208 119.431 207.656C119.06 208.104 118.795 208.629 118.655 209.193C118.514 209.757 118.502 210.345 118.618 210.914Z" fill="#7E57C2"/>
<path d="M118.62 210.914C118.594 210.816 118.574 210.715 118.56 210.614C118.522 210.309 118.522 210 118.56 209.694C118.631 209.091 118.837 208.512 119.165 208.001C119.492 207.49 119.932 207.06 120.45 206.744C120.815 206.527 121.214 206.372 121.63 206.284C122.091 206.198 122.561 206.168 123.03 206.194H126.24L134.24 206.264L185.79 206.754L221.73 207.114L241.87 207.324L252.43 207.434L257.82 207.484C258.28 207.484 258.71 207.484 259.2 207.484C259.681 207.531 260.149 207.667 260.58 207.884C261.473 208.304 262.183 209.032 262.58 209.934C262.754 210.376 262.878 210.835 262.95 211.304L263.23 212.664C263.41 213.564 263.6 214.474 263.78 215.384C264.16 217.214 264.53 219.054 264.91 220.894L267.19 232.124C268.73 239.691 270.303 247.434 271.91 255.354C275.13 271.174 278.48 287.624 281.91 304.584L281.67 304.384H316.99C317.455 304.362 317.921 304.389 318.38 304.464C319.337 304.701 320.167 305.295 320.7 306.124C321.003 306.565 321.211 307.065 321.309 307.591C321.406 308.117 321.393 308.658 321.268 309.178C321.144 309.698 320.911 310.187 320.586 310.612C320.261 311.037 319.85 311.388 319.38 311.644C318.863 311.924 318.287 312.078 317.7 312.094H271.23H222.93H139.17H139.02V311.944C132.73 280.944 127.62 255.704 124.08 238.224C122.33 229.484 120.96 222.684 120.03 218.064C119.57 215.754 119.22 213.994 119.03 212.804C118.84 211.614 118.7 211.004 118.7 211.004C118.7 211.004 118.84 211.614 119.09 212.794L120.19 218.034C121.14 222.654 122.54 229.454 124.34 238.174L139.44 311.874L139.25 311.714H223.01H317.77C318.28 311.695 318.779 311.562 319.23 311.324C319.638 311.1 319.995 310.793 320.278 310.422C320.56 310.052 320.761 309.626 320.869 309.173C320.976 308.719 320.987 308.248 320.901 307.791C320.816 307.333 320.635 306.898 320.37 306.514C319.901 305.825 319.185 305.342 318.37 305.164C317.944 305.096 317.512 305.069 317.08 305.084H281.45V304.894C278.01 287.894 274.68 271.474 271.45 255.654C269.843 247.748 268.273 240.004 266.74 232.424L264.4 221.044C264.03 219.194 263.66 217.364 263.29 215.534C263.1 214.624 262.92 213.714 262.73 212.804L262.46 211.454C262.395 211.012 262.277 210.579 262.11 210.164C261.776 209.368 261.17 208.716 260.4 208.324C260.014 208.134 259.598 208.012 259.17 207.964C258.75 207.964 258.27 207.964 257.83 207.964L252.43 207.904L241.87 207.784L221.74 207.544L185.8 207.124L134.25 206.494L126.25 206.384L123.04 206.334C122.579 206.306 122.116 206.33 121.66 206.404C121.256 206.495 120.868 206.647 120.51 206.854C119.995 207.157 119.557 207.574 119.229 208.074C118.901 208.573 118.693 209.141 118.62 209.734C118.57 210.126 118.57 210.523 118.62 210.914Z" fill="#263238"/>
<path d="M200.819 257.124C200.819 258.289 200.474 259.428 199.826 260.397C199.179 261.365 198.259 262.12 197.183 262.566C196.107 263.012 194.923 263.128 193.78 262.901C192.637 262.674 191.588 262.113 190.764 261.289C189.94 260.465 189.38 259.416 189.152 258.273C188.925 257.131 189.042 255.947 189.487 254.87C189.933 253.794 190.688 252.874 191.657 252.227C192.625 251.58 193.764 251.234 194.929 251.234C196.491 251.234 197.989 251.855 199.094 252.959C200.199 254.064 200.819 255.562 200.819 257.124Z" fill="#F8E8FF"/>
<path d="M118.781 211.734C118.781 211.734 118.991 211.734 119.401 211.734H128.141L153.651 211.854L237.801 212.444L249.971 212.544H252.971C253.483 212.521 253.996 212.551 254.501 212.634C255.014 212.735 255.502 212.931 255.941 213.214C256.833 213.777 257.479 214.656 257.751 215.674C257.981 216.674 258.141 217.594 258.341 218.554C259.851 226.154 261.341 233.484 262.691 240.464C265.451 254.464 267.941 267.014 270.021 277.584L274.931 302.584C275.491 305.534 275.931 307.824 276.241 309.394C276.381 310.164 276.491 310.754 276.571 311.174C276.651 311.594 276.661 311.774 276.661 311.774C276.661 311.774 276.601 311.574 276.521 311.184C276.441 310.794 276.301 310.184 276.141 309.414C275.821 307.844 275.351 305.564 274.741 302.624C273.541 296.704 271.821 288.164 269.681 277.624L262.241 240.524C260.851 233.524 259.381 226.214 257.871 218.614C257.671 217.674 257.491 216.694 257.291 215.774C257.043 214.876 256.469 214.102 255.681 213.604C255.288 213.366 254.854 213.203 254.401 213.124C253.929 213.046 253.449 213.02 252.971 213.044H249.971L237.801 212.954L153.641 212.214L128.141 211.934L121.201 211.834H119.401L118.781 211.734Z" fill="#263238"/>
<path d="M357.03 58.4943C357.235 67.8238 355.463 77.0911 351.83 85.6866C348.196 94.282 342.784 102.011 335.95 108.364C332.796 99.2643 329.653 90.1643 326.52 81.0643" fill="#263238"/>
<path d="M285.991 4.19429C294.081 -0.22571 303.851 -0.86571 312.891 0.94429C321.931 2.75429 330.351 6.84428 338.331 11.4643C342.811 14.0543 347.271 16.9043 350.491 20.9443C356.361 28.3343 362.171 40.4743 362.731 49.9443C363.191 57.5643 360.271 76.6343 357.051 83.5543C354.101 89.9043 340.271 94.7443 333.441 96.3143L270.801 23.4143C271.933 19.364 273.859 15.5792 276.467 12.2797C279.074 8.98023 282.312 6.23185 285.991 4.19429Z" fill="#263238"/>
<path d="M275.189 14.0142L290.189 11.3342C281.979 30.8842 279.749 75.5842 275.059 96.2642C269.519 88.2642 256.669 63.7642 257.359 54.0342C258.049 44.3042 257.399 12.3642 275.189 14.0142Z" fill="#263238"/>
<path d="M346.401 46.5542C345.591 35.1342 338.191 25.7742 327.101 22.9442L292.511 14.1242C277.571 12.5142 267.591 30.8942 266.611 45.8942C265.521 62.5642 264.851 80.1442 266.801 92.5842C270.711 117.584 289.871 120.824 289.871 120.824C289.871 120.824 289.871 132.724 289.871 140.024L301.441 187.934L338.731 136.414L346.451 46.8742C346.481 46.4342 346.401 47.1242 346.401 46.5542Z" fill="#E59C9F"/>
<path d="M274.121 64.7842C274.113 65.6204 274.431 66.4268 275.008 67.0319C275.585 67.637 276.376 67.993 277.211 68.0242C277.619 68.0569 278.03 68.0075 278.419 67.8791C278.807 67.7507 279.167 67.5459 279.475 67.2766C279.784 67.0073 280.035 66.679 280.215 66.3111C280.394 65.9432 280.499 65.5431 280.521 65.1342C280.53 64.2998 280.213 63.4948 279.638 62.89C279.063 62.2851 278.275 61.928 277.441 61.8942C277.032 61.8602 276.621 61.9085 276.231 62.0362C275.841 62.164 275.48 62.3686 275.171 62.6381C274.861 62.9075 274.609 63.2362 274.429 63.6049C274.248 63.9735 274.144 64.3745 274.121 64.7842Z" fill="#263238"/>
<path d="M270.398 55.6843C270.798 56.1043 273.228 54.3143 276.678 54.3243C280.128 54.3343 282.678 56.0743 283.028 55.6543C283.218 55.4643 282.808 54.7143 281.708 53.9043C280.218 52.8673 278.444 52.3156 276.628 52.3243C274.835 52.3181 273.085 52.878 271.628 53.9243C270.528 54.7443 270.168 55.4943 270.398 55.6843Z" fill="#263238"/>
<path d="M304.199 64.7843C304.191 65.6205 304.509 66.4269 305.086 67.032C305.663 67.6371 306.454 67.9931 307.289 68.0243C307.699 68.0584 308.11 68.0097 308.5 67.8812C308.891 67.7527 309.251 67.5471 309.56 67.2765C309.868 67.0058 310.12 66.6759 310.298 66.3061C310.477 65.9364 310.579 65.5345 310.599 65.1243C310.608 64.2899 310.291 63.4849 309.716 62.8801C309.141 62.2752 308.353 61.9181 307.519 61.8843C307.11 61.8503 306.697 61.8989 306.307 62.0273C305.916 62.1557 305.555 62.3612 305.246 62.6316C304.936 62.9021 304.684 63.232 304.504 63.6018C304.324 63.9716 304.221 64.3737 304.199 64.7843Z" fill="#263238"/>
<path d="M303.13 55.6842C303.53 56.1042 305.97 54.3142 309.42 54.3242C312.87 54.3342 315.42 56.0742 315.77 55.6542C315.95 55.4642 315.55 54.7142 314.45 53.9042C312.967 52.8766 311.205 52.3255 309.4 52.3242C307.607 52.3214 305.859 52.881 304.4 53.9242C303.3 54.7442 302.94 55.4942 303.13 55.6842Z" fill="#263238"/>
<path d="M292.402 82.7843C292.402 82.5943 290.272 82.2143 286.792 81.7843C285.912 81.6943 285.082 81.5143 284.932 80.9143C284.859 80.0033 285.069 79.092 285.532 78.3043C286.365 76.1776 287.239 73.9409 288.152 71.5943C291.792 62.0543 294.422 54.2043 294.042 54.0643C293.662 53.9243 290.392 61.5343 286.752 71.0643C285.872 73.4109 285.035 75.6576 284.242 77.8043C283.685 78.8669 283.518 80.0915 283.772 81.2643C283.899 81.5759 284.096 81.8542 284.347 82.0778C284.598 82.3015 284.898 82.4644 285.222 82.5543C285.706 82.6937 286.208 82.7644 286.712 82.7643C290.162 82.9643 292.332 82.9843 292.402 82.7843Z" fill="#263238"/>
<path d="M323.039 111.914C323.039 111.914 314.899 129.124 289.879 126.694V120.814C301.543 120.975 313.023 117.894 323.039 111.914Z" fill="#EB996E"/>
<path d="M304.222 43.2143C304.562 44.1543 308.002 43.7143 312.052 44.2143C316.102 44.7143 319.372 45.8243 319.912 44.9843C320.152 44.5743 319.582 43.6943 318.262 42.7843C316.51 41.6614 314.514 40.9755 312.442 40.7843C310.372 40.5312 308.272 40.7711 306.312 41.4843C304.822 42.0343 304.072 42.7643 304.222 43.2143Z" fill="#263238"/>
<path d="M271.489 45.1242C272.089 45.9142 274.489 45.1242 277.329 45.0742C280.169 45.0242 282.609 45.6142 283.169 44.7942C283.409 44.3942 283.029 43.6142 281.979 42.8642C280.559 41.9746 278.907 41.5255 277.233 41.5736C275.558 41.6216 273.935 42.1647 272.569 43.1342C271.549 43.9342 271.219 44.7442 271.489 45.1242Z" fill="#263238"/>
<path d="M273.4 23.0443C274.93 19.2843 279.06 17.0443 283.11 16.8243C287.16 16.6043 291.11 18.1543 294.65 20.1843C309.54 28.7943 317.2 49.5843 331.91 58.4943C335.53 60.6843 340.24 58.6743 343.32 61.5743C346.4 64.4743 348.39 69.1143 346.69 72.9843C348.798 70.3672 350.519 67.4609 351.8 64.3543C352.92 61.1843 353.06 57.5143 351.38 54.6043C350.11 52.3943 347.86 50.7143 347.25 48.2443C346.7 46.0643 347.56 43.7943 347.47 41.5543C347.215 39.278 346.431 37.093 345.18 35.1743C339.41 24.9843 331.48 15.7643 321.27 10.0243C314.604 6.17563 307.016 4.21546 299.32 4.35431C291.58 4.52778 284.158 7.46884 278.4 12.6443C275.11 15.7143 271.65 18.8843 273.4 23.0443Z" fill="#263238"/>
<path d="M342.961 64.6743C343.221 63.9543 356.271 59.2543 356.441 73.1143C356.611 86.5843 343.021 83.9343 342.991 83.5443C342.961 83.1543 342.961 64.6743 342.961 64.6743Z" fill="#E59C9F"/>
<path d="M347.1 78.4043C347.16 78.4043 347.33 78.5643 347.73 78.7443C348.295 78.9692 348.925 78.9692 349.49 78.7443C350.9 78.2143 352.08 75.9343 352.12 73.5143C352.148 72.3575 351.915 71.2093 351.44 70.1543C351.307 69.7354 351.075 69.3549 350.763 69.045C350.451 68.7351 350.069 68.505 349.65 68.3743C349.382 68.3044 349.097 68.3312 348.847 68.4501C348.596 68.569 348.395 68.7722 348.28 69.0243C348.1 69.4043 348.19 69.6743 348.11 69.6943C348.03 69.7143 347.82 69.4743 347.93 68.9143C348.003 68.5836 348.187 68.2875 348.45 68.0743C348.63 67.9321 348.837 67.827 349.059 67.7652C349.28 67.7034 349.512 67.6861 349.74 67.7143C350.295 67.8176 350.814 68.0624 351.247 68.425C351.679 68.7877 352.011 69.2559 352.21 69.7843C352.798 70.9414 353.091 72.2265 353.06 73.5243C353 76.2443 351.64 78.7943 349.69 79.3743C349.331 79.4832 348.953 79.5101 348.582 79.453C348.212 79.3959 347.859 79.2562 347.55 79.0443C347.12 78.7343 347.05 78.4343 347.1 78.4043Z" fill="#EB996E"/>
<path d="M348.32 57.7543C348.037 57.6281 347.766 57.4775 347.51 57.3043C346.99 56.9743 346.19 56.5343 345.25 55.8643C342.594 53.9238 340.153 51.7044 337.97 49.2443C334.794 45.563 331.826 41.707 329.08 37.6943C325.772 32.7769 322.056 28.1472 317.97 23.8543C315.789 21.7095 313.382 19.8083 310.79 18.1843C308.361 16.7037 305.762 15.5218 303.05 14.6643C298.446 13.1873 293.604 12.5936 288.78 12.9143C285.525 13.1128 282.31 13.7416 279.22 14.7843C278.11 15.1243 277.29 15.4943 276.72 15.7143C276.437 15.8442 276.142 15.9479 275.84 16.0243C276.106 15.8646 276.383 15.7243 276.67 15.6043C277.472 15.2206 278.297 14.8866 279.14 14.6043C282.227 13.4552 285.464 12.7547 288.75 12.5243C293.631 12.1249 298.544 12.6681 303.22 14.1243C305.985 14.9763 308.635 16.1652 311.11 17.6643C313.74 19.3123 316.184 21.2402 318.4 23.4143C322.511 27.7497 326.239 32.434 329.54 37.4143C332.256 41.4274 335.18 45.296 338.3 49.0043C340.44 51.4691 342.814 53.7197 345.39 55.7243C346.31 56.4143 347.08 56.8843 347.57 57.2443C347.833 57.3933 348.084 57.5639 348.32 57.7543Z" fill="#455A64"/>
<path d="M348.63 80.7843C349.293 80.662 349.978 80.7971 350.545 81.1619C351.112 81.5267 351.518 82.0938 351.682 82.7479C351.845 83.4019 351.753 84.0937 351.425 84.6823C351.096 85.2709 350.555 85.7122 349.913 85.9161C349.27 86.1201 348.574 86.0716 347.966 85.7803C347.358 85.489 346.884 84.977 346.64 84.3484C346.396 83.7199 346.401 83.022 346.654 82.397C346.907 81.772 347.388 81.2668 348 80.9843" fill="#EB996E"/>
<path d="M347.999 80.9843C347.421 81.4505 346.999 82.0819 346.789 82.7943C346.693 83.1615 346.691 83.5468 346.782 83.9153C346.872 84.2837 347.054 84.6237 347.309 84.9043C347.61 85.2588 348.008 85.5166 348.455 85.6455C348.902 85.7743 349.376 85.7684 349.82 85.6285C350.263 85.4886 350.655 85.2209 350.947 84.859C351.238 84.4971 351.417 84.0572 351.459 83.5943C351.5 83.2209 351.449 82.8432 351.309 82.4944C351.17 82.1456 350.946 81.8365 350.659 81.5943C350.088 81.1364 349.39 80.8642 348.659 80.8143C348.659 80.8143 348.859 80.6743 349.289 80.6643C349.899 80.6692 350.49 80.8768 350.969 81.2543C351.344 81.5317 351.64 81.9013 351.829 82.3271C352.018 82.753 352.094 83.2205 352.049 83.6843C352.011 84.2644 351.799 84.8196 351.441 85.2773C351.083 85.7351 350.595 86.0741 350.04 86.2501C349.486 86.4262 348.892 86.431 348.335 86.2641C347.779 86.0971 347.285 85.7661 346.919 85.3143C346.616 84.9623 346.409 84.538 346.318 84.0825C346.227 83.6271 346.255 83.1558 346.399 82.7143C346.558 82.1314 346.911 81.6201 347.399 81.2643C347.749 80.9943 347.989 80.9543 347.999 80.9843Z" fill="#263238"/>
<path d="M344.929 61.5643C345.139 65.2443 345.309 69.1243 343.609 72.3943C341.909 75.6643 337.609 77.8943 334.429 76.0643C331.819 74.5743 331.039 71.2243 330.589 68.2543C329.319 59.6743 328.729 51.0043 327.379 42.4343L344.929 61.5643Z" fill="#263238"/>
<path d="M276.719 16.6443C276.719 16.7143 277.909 16.4143 280.059 16.3443C283.11 16.2977 286.141 16.8515 288.979 17.9743C290.936 18.7324 292.807 19.6979 294.559 20.8543C296.567 22.202 298.49 23.6715 300.319 25.2543C304.556 28.8376 308.343 32.9206 311.599 37.4143C313.309 39.8143 314.829 42.2843 316.469 44.5743C318.026 46.8009 319.839 48.838 321.869 50.6443C325.361 53.6041 329.179 56.1572 333.249 58.2543C336.699 60.0743 339.579 61.3543 341.569 62.2543L343.869 63.2543C344.134 63.3841 344.412 63.4846 344.699 63.5543C344.462 63.3826 344.208 63.2384 343.939 63.1243L341.689 62.0143C339.689 61.0143 336.899 59.6943 333.509 57.8243C329.513 55.6726 325.764 53.0906 322.329 50.1243C320.347 48.3369 318.581 46.3232 317.069 44.1243C315.459 41.8643 313.949 39.3943 312.219 36.9643C308.928 32.4226 305.085 28.3077 300.779 24.7143C298.912 23.1271 296.948 21.6576 294.899 20.3143C293.098 19.1582 291.177 18.2026 289.169 17.4643C286.26 16.3621 283.154 15.8785 280.049 16.0443C279.211 16.0932 278.378 16.2102 277.559 16.3943C277.269 16.4387 276.986 16.5228 276.719 16.6443Z" fill="#455A64"/>
<path d="M345.301 53.2443C345.665 53.5568 346.064 53.8253 346.491 54.0443L349.911 56.0443L351.051 56.6944C351.501 56.9669 352.007 57.1344 352.531 57.1843C352.849 57.2189 353.17 57.145 353.441 56.9743C353.585 56.8729 353.705 56.7403 353.792 56.5862C353.879 56.4322 353.929 56.2607 353.941 56.0844C353.911 55.4663 353.691 54.8725 353.311 54.3843L349.311 48.0443L348.771 48.5343C351.411 50.4793 354.646 51.4445 357.921 51.2643C358.339 51.2612 358.755 51.1902 359.151 51.0543C359.372 50.9819 359.576 50.8633 359.748 50.7065C359.921 50.5496 360.058 50.358 360.151 50.1443C360.227 49.9163 360.247 49.6727 360.207 49.4355C360.166 49.1982 360.068 48.9745 359.921 48.7843C359.698 48.4779 359.444 48.1962 359.161 47.9444C357.382 46.225 355.839 44.2782 354.571 42.1543C353.452 40.1592 352.477 38.0873 351.651 35.9543C351.714 36.574 351.858 37.1826 352.081 37.7643C352.584 39.3828 353.254 40.9445 354.081 42.4243C355.31 44.6297 356.845 46.6498 358.641 48.4243C359.141 48.9043 359.641 49.4243 359.451 49.8743C359.261 50.3243 358.521 50.5143 357.811 50.5143C356.271 50.5918 354.728 50.4058 353.251 49.9643C351.779 49.5322 350.389 48.8561 349.141 47.9643L347.541 46.7843L348.611 48.4543L352.611 54.7443C352.923 55.1209 353.121 55.5789 353.181 56.0643C353.181 56.4443 352.841 56.6643 352.411 56.6343C351.546 56.4639 350.724 56.1241 349.991 55.6343L346.471 53.8344C346.103 53.597 345.71 53.3993 345.301 53.2443Z" fill="#455A64"/>
<path d="M305.472 89.1242C305.221 88.0995 304.617 87.1956 303.767 86.5705C302.917 85.9453 301.875 85.6387 300.822 85.7042C300.053 85.7986 299.319 86.0829 298.687 86.5316C298.055 86.9802 297.545 87.5791 297.202 88.2742C296.866 88.9736 296.675 89.7332 296.639 90.5079C296.603 91.2827 296.723 92.0568 296.992 92.7842L297.072 93.1042C297.79 93.8781 298.73 94.4115 299.762 94.6317C300.795 94.8518 301.87 94.7479 302.842 94.3342C303.793 93.8769 304.566 93.1182 305.042 92.176C305.517 91.2339 305.669 90.1611 305.472 89.1242Z" fill="#EB996E"/>
<path d="M294.559 93.2043C294.559 92.6843 298.049 92.8443 300.679 89.9843C303.309 87.1243 303.099 83.3843 303.589 83.3843C303.809 83.3843 304.229 84.2443 304.189 85.8243C304.118 87.8662 303.328 89.8173 301.959 91.3343C300.639 92.7935 298.803 93.6827 296.839 93.8143C295.399 93.8743 294.529 93.4443 294.559 93.2043Z" fill="#263238"/>
<path d="M412.12 305.124C412.043 305.134 411.966 305.134 411.89 305.124L411.19 305.194L408.52 305.414C406.2 305.604 402.84 305.824 398.68 306.074C390.37 306.564 378.88 307.074 366.18 307.284C353.48 307.494 341.96 307.374 333.64 307.154C329.48 307.054 326.11 306.934 323.79 306.834L321.11 306.694H323.79L333.65 306.864C341.97 306.984 353.47 307.044 366.17 306.864C378.87 306.684 390.35 306.204 398.66 305.804L408.51 305.314L411.19 305.194H411.88L412.12 305.124Z" fill="#F8E8FF"/>
</svg>
